<?xml version="1.0" encoding="utf-8"?>
<!-- Generator: Adobe Illustrator 21.1.0, SVG Export Plug-In . SVG Version: 6.00 Build 0)  -->
<svg version="1.1" id="Vrstva_1" xmlns="http://www.w3.org/2000/svg" xmlns:xlink="http://www.w3.org/1999/xlink" x="0px" y="0px"
	 viewBox="0 0 234.1 181" style="enable-background:new 0 0 234.1 181;" xml:space="preserve">
<style type="text/css">
	.st0{fill:#4FCC3E;}
	.st1{fill:#FFFFFF;stroke:#000000;stroke-miterlimit:10;}
	.st2{fill:#5DBF41;}
	.st3{fill:#55A53A;}
	.st4{fill:none;}
	.st5{fill:#243D18;}
	.st6{font-family:'Kitten';}
	.st7{font-size:44px;}
	.st8{display:none;fill:#7B7F79;}
	.st9{font-family:'CocoGothicAlternate-UltLtIta';}
	.st10{font-size:12px;}
</style>
<path class="st0" d="M91.7,121.7h25c0,0,1-72-44-98C72.7,23.7,104.7,58.7,91.7,121.7z"/>
<path class="st1" d="M108.8,72.7"/>
<path class="st1" d="M140.7,121.7"/>
<path class="st2" d="M134.1,121.7h-30.4c0,0-1.2-87.5,53.5-119.2C157.2,2.6,118.3,45.1,134.1,121.7z"/>
<path class="st3" d="M147.2,121.7h-21.8c0,0-0.9-62.8,38.4-85.5C163.8,36.2,135.9,66.8,147.2,121.7z"/>
<rect x="21.4" y="115.3" class="st4" width="232.3" height="47.8"/>
<text transform="matrix(1 0 0 1 21.4344 145.9887)" class="st5 st6 st7">Domapupek</text>
<rect x="23.8" y="160.7" class="st4" width="185.8" height="17.7"/>
<text transform="matrix(1 0 0 1 47.3553 169.6463)" class="st8 st9 st10">- údržba travních ploch -</text>
</svg>
